<mxfile host="app.diagrams.net" modified="2023-01-29T17:58:00.516Z" agent="5.0 (X11; Linux x86_64) AppleWebKit/537.36 (KHTML, like Gecko) Chrome/109.0.0.0 Safari/537.36" etag="EugdsoYuqmVN9aTu_Arb" version="20.8.13" type="github">
  <diagram name="Trang-1" id="XxQuda_EYcYDj27SEA0u">
    <mxGraphModel dx="1562" dy="871" grid="1" gridSize="10" guides="1" tooltips="1" connect="1" arrows="1" fold="1" page="0" pageScale="1" pageWidth="827" pageHeight="1169" background="none" math="0" shadow="0">
      <root>
        <mxCell id="0" />
        <mxCell id="1" parent="0" />
        <mxCell id="0KZlyX4UI77rE5v7gHqn-2" value="" style="endArrow=classic;html=1;edgeStyle=orthogonalEdgeStyle;endFill=0;dashed=1;strokeWidth=3;curved=1;rounded=0;sketch=1;curveFitting=1;jiggle=2;labelBackgroundColor=none;strokeColor=#006658;fontColor=default;" parent="1" edge="1">
          <mxGeometry width="50" height="50" relative="1" as="geometry">
            <mxPoint x="270" y="292" as="sourcePoint" />
            <mxPoint x="510" y="292" as="targetPoint" />
            <Array as="points">
              <mxPoint x="350" y="292" />
              <mxPoint x="350" y="240" />
            </Array>
          </mxGeometry>
        </mxCell>
        <mxCell id="0KZlyX4UI77rE5v7gHqn-3" value="Actor" style="shape=umlActor;verticalLabelPosition=bottom;verticalAlign=top;html=1;outlineConnect=0;hachureGap=4;fontFamily=Architects Daughter;fontSource=https%3A%2F%2Ffonts.googleapis.com%2Fcss%3Ffamily%3DArchitects%2BDaughter;fontSize=20;rounded=0;sketch=1;curveFitting=1;jiggle=2;labelBackgroundColor=none;fillColor=#21C0A5;strokeColor=#006658;fontColor=#5C5C5C;" parent="1" vertex="1">
          <mxGeometry x="330" y="330" width="30" height="60" as="geometry" />
        </mxCell>
        <mxCell id="0KZlyX4UI77rE5v7gHqn-4" value="Actor" style="shape=umlActor;verticalLabelPosition=bottom;verticalAlign=top;html=1;outlineConnect=0;hachureGap=4;fontFamily=Architects Daughter;fontSource=https%3A%2F%2Ffonts.googleapis.com%2Fcss%3Ffamily%3DArchitects%2BDaughter;fontSize=20;rounded=0;sketch=1;curveFitting=1;jiggle=2;labelBackgroundColor=none;fillColor=#21C0A5;strokeColor=#006658;fontColor=#5C5C5C;" parent="1" vertex="1">
          <mxGeometry x="414" y="330" width="30" height="60" as="geometry" />
        </mxCell>
        <mxCell id="0KZlyX4UI77rE5v7gHqn-5" value="" style="whiteSpace=wrap;html=1;aspect=fixed;hachureGap=4;fontFamily=Architects Daughter;fontSource=https%3A%2F%2Ffonts.googleapis.com%2Fcss%3Ffamily%3DArchitects%2BDaughter;fontSize=20;fillStyle=hachure;fillColor=#21C0A5;rounded=0;sketch=1;curveFitting=1;jiggle=2;labelBackgroundColor=none;strokeColor=#006658;fontColor=#5C5C5C;" parent="1" vertex="1">
          <mxGeometry x="530" y="215" width="180" height="180" as="geometry" />
        </mxCell>
        <mxCell id="0KZlyX4UI77rE5v7gHqn-6" value="" style="triangle;whiteSpace=wrap;html=1;hachureGap=4;fillStyle=hachure;fontFamily=Architects Daughter;fontSource=https%3A%2F%2Ffonts.googleapis.com%2Fcss%3Ffamily%3DArchitects%2BDaughter;fontSize=20;fillColor=none;rounded=0;sketch=1;curveFitting=1;jiggle=2;labelBackgroundColor=none;strokeColor=#006658;fontColor=#5C5C5C;" parent="1" vertex="1">
          <mxGeometry x="140" y="340" width="60" height="80" as="geometry" />
        </mxCell>
        <mxCell id="0KZlyX4UI77rE5v7gHqn-7" value="" style="triangle;whiteSpace=wrap;html=1;hachureGap=4;fillStyle=hachure;fontFamily=Architects Daughter;fontSource=https%3A%2F%2Ffonts.googleapis.com%2Fcss%3Ffamily%3DArchitects%2BDaughter;fontSize=20;fillColor=none;rounded=0;sketch=1;curveFitting=1;jiggle=2;labelBackgroundColor=none;strokeColor=#006658;fontColor=#5C5C5C;" parent="1" vertex="1">
          <mxGeometry x="210" y="340" width="60" height="80" as="geometry" />
        </mxCell>
        <mxCell id="0KZlyX4UI77rE5v7gHqn-8" value="" style="triangle;whiteSpace=wrap;html=1;hachureGap=4;fillStyle=hachure;fontFamily=Architects Daughter;fontSource=https%3A%2F%2Ffonts.googleapis.com%2Fcss%3Ffamily%3DArchitects%2BDaughter;fontSize=20;fillColor=none;rounded=0;sketch=1;curveFitting=1;jiggle=2;labelBackgroundColor=none;strokeColor=#006658;fontColor=#5C5C5C;" parent="1" vertex="1">
          <mxGeometry x="70" y="340" width="60" height="80" as="geometry" />
        </mxCell>
        <mxCell id="0KZlyX4UI77rE5v7gHqn-9" value="" style="triangle;whiteSpace=wrap;html=1;hachureGap=4;fillStyle=hachure;fontFamily=Architects Daughter;fontSource=https%3A%2F%2Ffonts.googleapis.com%2Fcss%3Ffamily%3DArchitects%2BDaughter;fontSize=20;fillColor=none;rounded=0;sketch=1;curveFitting=1;jiggle=2;labelBackgroundColor=none;strokeColor=#006658;fontColor=#5C5C5C;" parent="1" vertex="1">
          <mxGeometry x="70" y="430" width="60" height="80" as="geometry" />
        </mxCell>
        <mxCell id="0KZlyX4UI77rE5v7gHqn-10" value="" style="whiteSpace=wrap;html=1;aspect=fixed;hachureGap=4;fillStyle=hachure;fontFamily=Architects Daughter;fontSource=https%3A%2F%2Ffonts.googleapis.com%2Fcss%3Ffamily%3DArchitects%2BDaughter;fontSize=20;fillColor=none;rounded=0;sketch=1;curveFitting=1;jiggle=2;labelBackgroundColor=none;strokeColor=#006658;fontColor=#5C5C5C;" parent="1" vertex="1">
          <mxGeometry x="90" y="240" width="80" height="80" as="geometry" />
        </mxCell>
        <mxCell id="0KZlyX4UI77rE5v7gHqn-11" value="" style="whiteSpace=wrap;html=1;aspect=fixed;hachureGap=4;fillStyle=hachure;fontFamily=Architects Daughter;fontSource=https%3A%2F%2Ffonts.googleapis.com%2Fcss%3Ffamily%3DArchitects%2BDaughter;fontSize=20;fillColor=none;rounded=0;sketch=1;curveFitting=1;jiggle=2;labelBackgroundColor=none;strokeColor=#006658;fontColor=#5C5C5C;" parent="1" vertex="1">
          <mxGeometry x="170" y="430" width="80" height="80" as="geometry" />
        </mxCell>
        <mxCell id="0KZlyX4UI77rE5v7gHqn-12" value="Actor" style="shape=umlActor;verticalLabelPosition=bottom;verticalAlign=top;html=1;outlineConnect=0;hachureGap=4;fillStyle=hachure;fontFamily=Architects Daughter;fontSource=https%3A%2F%2Ffonts.googleapis.com%2Fcss%3Ffamily%3DArchitects%2BDaughter;fontSize=20;fillColor=none;rounded=0;sketch=1;curveFitting=1;jiggle=2;labelBackgroundColor=none;strokeColor=#006658;fontColor=#5C5C5C;" parent="1" vertex="1">
          <mxGeometry x="270" y="200" width="30" height="60" as="geometry" />
        </mxCell>
        <mxCell id="0KZlyX4UI77rE5v7gHqn-13" value="" style="endArrow=classic;html=1;rounded=0;hachureGap=4;fontFamily=Architects Daughter;fontSource=https%3A%2F%2Ffonts.googleapis.com%2Fcss%3Ffamily%3DArchitects%2BDaughter;fontSize=16;sketch=1;curveFitting=1;jiggle=2;labelBackgroundColor=none;strokeColor=#006658;fontColor=default;" parent="1" edge="1">
          <mxGeometry width="50" height="50" relative="1" as="geometry">
            <mxPoint x="320" y="360" as="sourcePoint" />
            <mxPoint x="370" y="310" as="targetPoint" />
          </mxGeometry>
        </mxCell>
        <mxCell id="0KZlyX4UI77rE5v7gHqn-14" value="" style="endArrow=classic;html=1;rounded=0;hachureGap=4;fontFamily=Architects Daughter;fontSource=https%3A%2F%2Ffonts.googleapis.com%2Fcss%3Ffamily%3DArchitects%2BDaughter;fontSize=16;sketch=1;curveFitting=1;jiggle=2;labelBackgroundColor=none;strokeColor=#006658;fontColor=default;" parent="1" edge="1">
          <mxGeometry width="50" height="50" relative="1" as="geometry">
            <mxPoint x="340" y="250" as="sourcePoint" />
            <mxPoint x="390" y="200" as="targetPoint" />
          </mxGeometry>
        </mxCell>
        <mxCell id="0KZlyX4UI77rE5v7gHqn-15" value="Actor" style="shape=umlActor;verticalLabelPosition=bottom;verticalAlign=top;html=1;outlineConnect=0;sketch=1;hachureGap=4;jiggle=2;curveFitting=1;strokeColor=#006658;fontFamily=Architects Daughter;fontSource=https%3A%2F%2Ffonts.googleapis.com%2Fcss%3Ffamily%3DArchitects%2BDaughter;fontSize=20;fontColor=#5C5C5C;fillColor=#21C0A5;" parent="1" vertex="1">
          <mxGeometry x="195" y="200" width="30" height="60" as="geometry" />
        </mxCell>
        <mxCell id="0KZlyX4UI77rE5v7gHqn-16" value="Text" style="text;html=1;strokeColor=none;fillColor=none;align=center;verticalAlign=middle;whiteSpace=wrap;rounded=0;fontSize=20;fontFamily=Architects Daughter;fontColor=#5C5C5C;" parent="1" vertex="1">
          <mxGeometry x="384" y="265" width="60" height="30" as="geometry" />
        </mxCell>
        <mxCell id="0KZlyX4UI77rE5v7gHqn-17" value="Text" style="text;html=1;strokeColor=none;fillColor=none;align=center;verticalAlign=middle;whiteSpace=wrap;rounded=0;fontSize=20;fontFamily=Architects Daughter;fontColor=#5C5C5C;" parent="1" vertex="1">
          <mxGeometry x="384" y="290" width="60" height="30" as="geometry" />
        </mxCell>
        <mxCell id="0KZlyX4UI77rE5v7gHqn-18" value="&lt;h1&gt;Heading&lt;/h1&gt;&lt;p&gt;Lorem ipsum dolor sit amet, consectetur adipisicing elit, sed do eiusmod tempor incididunt ut labore et dolore magna aliqua.&lt;/p&gt;" style="text;html=1;strokeColor=none;fillColor=none;spacing=5;spacingTop=-20;whiteSpace=wrap;overflow=hidden;rounded=0;fontSize=20;fontFamily=Architects Daughter;fontColor=#5C5C5C;" parent="1" vertex="1">
          <mxGeometry x="500" y="20" width="190" height="120" as="geometry" />
        </mxCell>
      </root>
    </mxGraphModel>
  </diagram>
</mxfile>
